<svg id="visual" viewBox="0 0 900 600" width="900" height="600" xmlns="http://www.w3.org/2000/svg" xmlns:xlink="http://www.w3.org/1999/xlink" version="1.1"><rect x="0" y="0" width="900" height="600" fill="#888888"></rect><path d="M0 298L21.5 277.3C43 256.7 86 215.3 128.8 211.7C171.7 208 214.3 242 257.2 252.5C300 263 343 250 385.8 232.5C428.7 215 471.3 193 514.2 180C557 167 600 163 642.8 164C685.7 165 728.3 171 771.2 185C814 199 857 221 878.5 232L900 243L900 601L878.5 601C857 601 814 601 771.2 601C728.3 601 685.7 601 642.8 601C600 601 557 601 514.2 601C471.3 601 428.7 601 385.8 601C343 601 300 601 257.2 601C214.3 601 171.7 601 128.8 601C86 601 43 601 21.5 601L0 601Z" fill="#7d7777"></path><path d="M0 231L21.5 235.7C43 240.3 86 249.7 128.8 271.3C171.7 293 214.3 327 257.2 334.7C300 342.3 343 323.7 385.8 308.7C428.7 293.7 471.3 282.3 514.2 269.8C557 257.3 600 243.7 642.8 258.2C685.7 272.7 728.3 315.3 771.2 322C814 328.7 857 299.3 878.5 284.7L900 270L900 601L878.5 601C857 601 814 601 771.2 601C728.3 601 685.7 601 642.8 601C600 601 557 601 514.2 601C471.3 601 428.7 601 385.8 601C343 601 300 601 257.2 601C214.3 601 171.7 601 128.8 601C86 601 43 601 21.5 601L0 601Z" fill="#676363"></path><path d="M0 310L21.5 327.3C43 344.7 86 379.3 128.8 393.2C171.7 407 214.3 400 257.2 398.7C300 397.3 343 401.7 385.8 391.8C428.7 382 471.3 358 514.2 344.3C557 330.7 600 327.3 642.8 332.7C685.7 338 728.3 352 771.2 357.2C814 362.3 857 358.7 878.5 356.8L900 355L900 601L878.5 601C857 601 814 601 771.2 601C728.3 601 685.7 601 642.8 601C600 601 557 601 514.2 601C471.3 601 428.7 601 385.8 601C343 601 300 601 257.2 601C214.3 601 171.7 601 128.8 601C86 601 43 601 21.5 601L0 601Z" fill="#524f4f"></path><path d="M0 386L21.5 391.3C43 396.7 86 407.3 128.8 412.2C171.7 417 214.3 416 257.2 415.8C300 415.7 343 416.3 385.8 419.5C428.7 422.7 471.3 428.3 514.2 436.2C557 444 600 454 642.8 453.2C685.7 452.3 728.3 440.7 771.2 433.3C814 426 857 423 878.5 421.5L900 420L900 601L878.5 601C857 601 814 601 771.2 601C728.3 601 685.7 601 642.8 601C600 601 557 601 514.2 601C471.3 601 428.7 601 385.8 601C343 601 300 601 257.2 601C214.3 601 171.7 601 128.8 601C86 601 43 601 21.5 601L0 601Z" fill="#3e3c3c"></path><path d="M0 485L21.5 487C43 489 86 493 128.8 490C171.7 487 214.3 477 257.2 483.3C300 489.7 343 512.3 385.8 520.2C428.7 528 471.3 521 514.2 518.2C557 515.3 600 516.7 642.8 520.5C685.7 524.3 728.3 530.7 771.2 526.2C814 521.7 857 506.3 878.5 498.7L900 491L900 601L878.5 601C857 601 814 601 771.2 601C728.3 601 685.7 601 642.8 601C600 601 557 601 514.2 601C471.3 601 428.7 601 385.8 601C343 601 300 601 257.2 601C214.3 601 171.7 601 128.8 601C86 601 43 601 21.5 601L0 601Z" fill="#2b2a2a"></path></svg>