<svg id="visual" viewBox="0 0 900 600" width="900" height="600" xmlns="http://www.w3.org/2000/svg" xmlns:xlink="http://www.w3.org/1999/xlink" version="1.1"><rect x="0" y="0" width="900" height="600" fill="#dbd2d2"></rect><path d="M0 462L15 461C30 460 60 458 90 461.5C120 465 150 474 180 472.7C210 471.3 240 459.7 270 463.7C300 467.7 330 487.3 360 487.3C390 487.3 420 467.7 450 456.3C480 445 510 442 540 439.5C570 437 600 435 630 440.5C660 446 690 459 720 462.2C750 465.3 780 458.7 810 454.3C840 450 870 448 885 447L900 446L900 0L885 0C870 0 840 0 810 0C780 0 750 0 720 0C690 0 660 0 630 0C600 0 570 0 540 0C510 0 480 0 450 0C420 0 390 0 360 0C330 0 300 0 270 0C240 0 210 0 180 0C150 0 120 0 90 0C60 0 30 0 15 0L0 0Z" fill="#dbd2d2"></path><path d="M0 393L15 394.7C30 396.3 60 399.7 90 400.8C120 402 150 401 180 399C210 397 240 394 270 390.7C300 387.3 330 383.7 360 381.3C390 379 420 378 450 387.8C480 397.7 510 418.3 540 418.3C570 418.3 600 397.7 630 393.7C660 389.7 690 402.3 720 406C750 409.7 780 404.3 810 397.8C840 391.3 870 383.7 885 379.8L900 376L900 0L885 0C870 0 840 0 810 0C780 0 750 0 720 0C690 0 660 0 630 0C600 0 570 0 540 0C510 0 480 0 450 0C420 0 390 0 360 0C330 0 300 0 270 0C240 0 210 0 180 0C150 0 120 0 90 0C60 0 30 0 15 0L0 0Z" fill="#ded6d6"></path><path d="M0 336L15 341.8C30 347.7 60 359.3 90 372C120 384.7 150 398.3 180 394C210 389.7 240 367.3 270 356.5C300 345.7 330 346.3 360 346.8C390 347.3 420 347.7 450 359C480 370.3 510 392.7 540 391C570 389.3 600 363.7 630 358.8C660 354 690 370 720 374.3C750 378.7 780 371.3 810 365.3C840 359.3 870 354.7 885 352.3L900 350L900 0L885 0C870 0 840 0 810 0C780 0 750 0 720 0C690 0 660 0 630 0C600 0 570 0 540 0C510 0 480 0 450 0C420 0 390 0 360 0C330 0 300 0 270 0C240 0 210 0 180 0C150 0 120 0 90 0C60 0 30 0 15 0L0 0Z" fill="#e2dada"></path><path d="M0 374L15 372C30 370 60 366 90 357.8C120 349.7 150 337.3 180 331C210 324.7 240 324.3 270 333.8C300 343.3 330 362.7 360 371.3C390 380 420 378 450 368.5C480 359 510 342 540 340.3C570 338.7 600 352.3 630 356.8C660 361.3 690 356.7 720 347.5C750 338.3 780 324.7 810 316.5C840 308.3 870 305.7 885 304.3L900 303L900 0L885 0C870 0 840 0 810 0C780 0 750 0 720 0C690 0 660 0 630 0C600 0 570 0 540 0C510 0 480 0 450 0C420 0 390 0 360 0C330 0 300 0 270 0C240 0 210 0 180 0C150 0 120 0 90 0C60 0 30 0 15 0L0 0Z" fill="#e5dede"></path><path d="M0 336L15 325.2C30 314.3 60 292.7 90 284.2C120 275.7 150 280.3 180 290.2C210 300 240 315 270 322C300 329 330 328 360 328.7C390 329.3 420 331.7 450 334.7C480 337.7 510 341.3 540 335.8C570 330.3 600 315.7 630 315.3C660 315 690 329 720 328C750 327 780 311 810 307.3C840 303.7 870 312.3 885 316.7L900 321L900 0L885 0C870 0 840 0 810 0C780 0 750 0 720 0C690 0 660 0 630 0C600 0 570 0 540 0C510 0 480 0 450 0C420 0 390 0 360 0C330 0 300 0 270 0C240 0 210 0 180 0C150 0 120 0 90 0C60 0 30 0 15 0L0 0Z" fill="#e8e2e2"></path><path d="M0 283L15 280.2C30 277.3 60 271.7 90 273C120 274.3 150 282.7 180 284.3C210 286 240 281 270 279C300 277 330 278 360 270.7C390 263.3 420 247.7 450 239.3C480 231 510 230 540 230.5C570 231 600 233 630 234.7C660 236.3 690 237.7 720 245.7C750 253.7 780 268.3 810 271.2C840 274 870 265 885 260.5L900 256L900 0L885 0C870 0 840 0 810 0C780 0 750 0 720 0C690 0 660 0 630 0C600 0 570 0 540 0C510 0 480 0 450 0C420 0 390 0 360 0C330 0 300 0 270 0C240 0 210 0 180 0C150 0 120 0 90 0C60 0 30 0 15 0L0 0Z" fill="#ebe6e6"></path><path d="M0 215L15 219.7C30 224.3 60 233.7 90 237.2C120 240.7 150 238.3 180 239.7C210 241 240 246 270 239.5C300 233 330 215 360 207.7C390 200.3 420 203.7 450 205.3C480 207 510 207 540 213.3C570 219.7 600 232.3 630 239.5C660 246.7 690 248.3 720 241.2C750 234 780 218 810 211.3C840 204.7 870 207.3 885 208.7L900 210L900 0L885 0C870 0 840 0 810 0C780 0 750 0 720 0C690 0 660 0 630 0C600 0 570 0 540 0C510 0 480 0 450 0C420 0 390 0 360 0C330 0 300 0 270 0C240 0 210 0 180 0C150 0 120 0 90 0C60 0 30 0 15 0L0 0Z" fill="#efeaea"></path><path d="M0 220L15 218.7C30 217.3 60 214.7 90 215C120 215.3 150 218.7 180 219.3C210 220 240 218 270 208.5C300 199 330 182 360 181.3C390 180.7 420 196.3 450 199.2C480 202 510 192 540 190C570 188 600 194 630 198.8C660 203.7 690 207.3 720 206.2C750 205 780 199 810 198.5C840 198 870 203 885 205.5L900 208L900 0L885 0C870 0 840 0 810 0C780 0 750 0 720 0C690 0 660 0 630 0C600 0 570 0 540 0C510 0 480 0 450 0C420 0 390 0 360 0C330 0 300 0 270 0C240 0 210 0 180 0C150 0 120 0 90 0C60 0 30 0 15 0L0 0Z" fill="#f2eeee"></path><path d="M0 133L15 136.5C30 140 60 147 90 152.2C120 157.3 150 160.7 180 165C210 169.3 240 174.7 270 168.8C300 163 330 146 360 142C390 138 420 147 450 154.8C480 162.7 510 169.3 540 172.7C570 176 600 176 630 176.7C660 177.3 690 178.7 720 174.5C750 170.3 780 160.7 810 155.3C840 150 870 149 885 148.5L900 148L900 0L885 0C870 0 840 0 810 0C780 0 750 0 720 0C690 0 660 0 630 0C600 0 570 0 540 0C510 0 480 0 450 0C420 0 390 0 360 0C330 0 300 0 270 0C240 0 210 0 180 0C150 0 120 0 90 0C60 0 30 0 15 0L0 0Z" fill="#f5f2f2"></path><path d="M0 117L15 119.2C30 121.3 60 125.7 90 122.2C120 118.7 150 107.3 180 108C210 108.7 240 121.3 270 124.7C300 128 330 122 360 118.5C390 115 420 114 450 117.5C480 121 510 129 540 126.2C570 123.3 600 109.7 630 106.7C660 103.7 690 111.3 720 114.5C750 117.7 780 116.3 810 120C840 123.7 870 132.3 885 136.7L900 141L900 0L885 0C870 0 840 0 810 0C780 0 750 0 720 0C690 0 660 0 630 0C600 0 570 0 540 0C510 0 480 0 450 0C420 0 390 0 360 0C330 0 300 0 270 0C240 0 210 0 180 0C150 0 120 0 90 0C60 0 30 0 15 0L0 0Z" fill="#f8f7f7"></path><path d="M0 75L15 75.8C30 76.7 60 78.3 90 76.8C120 75.3 150 70.7 180 71.5C210 72.3 240 78.7 270 84C300 89.3 330 93.7 360 91.7C390 89.7 420 81.3 450 76.7C480 72 510 71 540 72.5C570 74 600 78 630 83.3C660 88.7 690 95.3 720 94.5C750 93.7 780 85.3 810 80.8C840 76.3 870 75.7 885 75.3L900 75L900 0L885 0C870 0 840 0 810 0C780 0 750 0 720 0C690 0 660 0 630 0C600 0 570 0 540 0C510 0 480 0 450 0C420 0 390 0 360 0C330 0 300 0 270 0C240 0 210 0 180 0C150 0 120 0 90 0C60 0 30 0 15 0L0 0Z" fill="#fcfbfb"></path><path d="M0 48L15 46.5C30 45 60 42 90 43.2C120 44.3 150 49.7 180 51.2C210 52.7 240 50.3 270 45.8C300 41.3 330 34.7 360 31.2C390 27.7 420 27.3 450 32.5C480 37.7 510 48.3 540 49.7C570 51 600 43 630 41.3C660 39.7 690 44.3 720 46.3C750 48.3 780 47.7 810 49.7C840 51.7 870 56.3 885 58.7L900 61L900 0L885 0C870 0 840 0 810 0C780 0 750 0 720 0C690 0 660 0 630 0C600 0 570 0 540 0C510 0 480 0 450 0C420 0 390 0 360 0C330 0 300 0 270 0C240 0 210 0 180 0C150 0 120 0 90 0C60 0 30 0 15 0L0 0Z" fill="#ffffff"></path></svg>