<svg id="visual" viewBox="0 0 900 600" width="900" height="600" xmlns="http://www.w3.org/2000/svg" xmlns:xlink="http://www.w3.org/1999/xlink" version="1.1"><rect x="0" y="0" width="900" height="600" fill="#FFE8DF"></rect><path d="M0 419L21.5 415.3C43 411.7 86 404.3 128.8 389C171.7 373.7 214.3 350.3 257.2 335.5C300 320.7 343 314.3 385.8 322.5C428.7 330.7 471.3 353.3 514.2 372.5C557 391.7 600 407.3 642.8 399.8C685.7 392.3 728.3 361.7 771.2 368.7C814 375.7 857 420.3 878.5 442.7L900 465L900 0L878.5 0C857 0 814 0 771.2 0C728.3 0 685.7 0 642.8 0C600 0 557 0 514.2 0C471.3 0 428.7 0 385.8 0C343 0 300 0 257.2 0C214.3 0 171.7 0 128.8 0C86 0 43 0 21.5 0L0 0Z" fill="#f4d8ce"></path><path d="M0 311L21.5 303.7C43 296.3 86 281.7 128.8 272.3C171.7 263 214.3 259 257.2 264.2C300 269.3 343 283.7 385.8 282.2C428.7 280.7 471.3 263.3 514.2 262.8C557 262.3 600 278.7 642.8 282.7C685.7 286.7 728.3 278.3 771.2 285.5C814 292.7 857 315.3 878.5 326.7L900 338L900 0L878.5 0C857 0 814 0 771.2 0C728.3 0 685.7 0 642.8 0C600 0 557 0 514.2 0C471.3 0 428.7 0 385.8 0C343 0 300 0 257.2 0C214.3 0 171.7 0 128.8 0C86 0 43 0 21.5 0L0 0Z" fill="#f4c6b5"></path><path d="M0 255L21.5 242.8C43 230.7 86 206.3 128.8 208C171.7 209.7 214.3 237.3 257.2 247.7C300 258 343 251 385.8 248C428.7 245 471.3 246 514.2 248.5C557 251 600 255 642.8 250.2C685.7 245.3 728.3 231.7 771.2 226C814 220.3 857 222.7 878.5 223.8L900 225L900 0L878.5 0C857 0 814 0 771.2 0C728.3 0 685.7 0 642.8 0C600 0 557 0 514.2 0C471.3 0 428.7 0 385.8 0C343 0 300 0 257.2 0C214.3 0 171.7 0 128.8 0C86 0 43 0 21.5 0L0 0Z" fill="#f2b49c"></path><path d="M0 142L21.5 142C43 142 86 142 128.8 133.5C171.7 125 214.3 108 257.2 105.8C300 103.7 343 116.3 385.8 123.2C428.7 130 471.3 131 514.2 133.5C557 136 600 140 642.8 142C685.7 144 728.3 144 771.2 137.2C814 130.3 857 116.7 878.5 109.8L900 103L900 0L878.5 0C857 0 814 0 771.2 0C728.3 0 685.7 0 642.8 0C600 0 557 0 514.2 0C471.3 0 428.7 0 385.8 0C343 0 300 0 257.2 0C214.3 0 171.7 0 128.8 0C86 0 43 0 21.5 0L0 0Z" fill="#eea283"></path></svg>